<?xml version="1.0" encoding="UTF-8" standalone="no"?>
<svg
   xmlns:dc="http://purl.org/dc/elements/1.1/"
   xmlns:cc="http://creativecommons.org/ns#"
   xmlns:rdf="http://www.w3.org/1999/02/22-rdf-syntax-ns#"
   xmlns:svg="http://www.w3.org/2000/svg"
   xmlns="http://www.w3.org/2000/svg"
   viewBox="0 0 1291.5601 350.53333"
   height="350.53333"
   width="1291.5601"
   xml:space="preserve"
   id="svg2"
   version="1.1"><metadata
     id="metadata8"><rdf:RDF><cc:Work
         rdf:about=""><dc:format>image/svg+xml</dc:format><dc:type
           rdf:resource="http://purl.org/dc/dcmitype/StillImage" /></cc:Work></rdf:RDF></metadata><defs
     id="defs6" /><g
     transform="matrix(1.3333333,0,0,-1.3333333,0,350.53333)"
     id="g10"><g
       transform="scale(0.1)"
       id="g12"><path
         id="path14"
         style="fill:#ffffff;fill-opacity:1;fill-rule:nonzero;stroke:none"
         d="M 900.73,2137.16 V 2532.6 H 2685.5 V 2137.16 Z M 294.109,2040.78 C 131.934,2040.78 0,2172.71 0,2334.88 c 0,162.17 131.934,294.11 294.109,294.11 162.168,0 294.106,-131.94 294.106,-294.11 0,-162.17 -131.938,-294.1 -294.106,-294.1 z M 86.4258,43.1992 V 1761.5 H 501.809 V 43.1992 Z m 781.0742,0 V 438.648 h 1818 V 43.1992 Z m 5314.21,0 V 1465.78 H 5543.47 V 43.1992 H 5128.09 V 1465.78 h -412.15 v 362.19 h 412.15 v 491.91 h 415.38 v -491.91 h 638.24 v 491.91 h 415.38 v -491.91 h 412.15 V 1465.78 H 6597.09 V 43.1992 Z m 1053.62,0 V 2575.81 h 415.38 V 43.1992 Z M 3723.77,1522.28 c -220.06,0 -388.86,-155.93 -410.47,-379.18 l -1.59,-16.44 h 800.33 l -1.04,15.98 c -14.67,223.52 -173.9,379.64 -387.23,379.64 z M 3783.58,0 c -257.97,0 -493.89,90.4297 -664.3,254.641 -177.46,171.007 -271.27,404.179 -271.27,674.3 0,254.149 84.39,489.649 237.62,663.129 158.99,179.98 383.26,279.1 631.49,279.1 243.89,0 464.58,-94.2 621.43,-265.25 176.01,-191.93 259.42,-467.9 235.56,-778.311 h -1282.5 l 1.78,-16.589 c 29.61,-276.411 234.62,-462.11 510.14,-462.11 231.2,0 400.65,138.86 472.06,209.75 L 4527.56,306.699 C 4359.53,117.211 4075.99,0 3783.58,0 Z m 5048.76,1522.28 c -220.05,0 -388.84,-155.93 -410.46,-379.18 l -1.59,-16.44 h 800.33 l -1.05,15.98 c -14.66,223.52 -173.89,379.64 -387.23,379.64 z M 8892.18,0 c -257.98,0 -493.91,90.4297 -664.32,254.641 -177.47,171.007 -271.28,404.179 -271.28,674.3 0,254.149 84.4,489.649 237.63,663.129 158.98,179.98 383.25,279.1 631.48,279.1 243.89,0 464.58,-94.2 621.44,-265.24 176,-191.94 259.42,-467.9 235.57,-778.321 H 8400.19 l 1.77,-16.589 c 29.61,-276.411 234.63,-462.11 510.16,-462.11 231.2,0 400.64,138.86 472.04,209.75 L 9636.13,306.699 C 9468.12,117.211 9184.58,0 8892.18,0" /><path
         id="path16"
         style="fill:#aa96d2;fill-opacity:1;fill-rule:nonzero;stroke:none"
         d="M 2130.6,2137.16 867.5,438.648 h 578.33 L 2685.5,2137.16 h -554.9" /></g></g></svg>
